<svg xmlns="http://www.w3.org/2000/svg" version="1.0" width="300" height="66" viewBox="0 0 850 153.000000" preserveAspectRatio="xMidYMid meet">
  <metadata>
    Created by potrace 1.16, written by Peter Selinger 2001-2019
    <meta name="Producer" content="Online-Convert" /></metadata>
  <g transform="translate(0.000000,153.000000) scale(0.100000,-0.100000)" fill="#fff" stroke="none">
    <path d="M5652 1299 c-66 -20 -110 -82 -255 -362 l-139 -266 28 -51 c36 -67 75 -90 150 -90 33 0 64 4 70 8 15 10 210 390 218 424 8 35 60 94 100 115 16 9 52 18 78 22 l47 6 -57 79 c-35 49 -70 86 -92 97 -45 23 -106 31 -148 18z" />
    <path d="M2258 1274 c-196 -47 -362 -215 -409 -414 -18 -77 -15 -203 5 -275 l18 -59 18 51 c34 96 74 158 160 244 65 66 102 94 160 122 129 63 159 67 497 67 177 0 323 4 352 11 90 19 177 122 197 232 l6 37 -473 -1 c-368 0 -487 -4 -531 -15z" />
    <path d="M3553 1275 c-182 -56 -287 -232 -239 -397 23 -80 39 -89 60 -34 20 52 80 116 134 142 34 18 75 19 527 24 459 5 492 6 529 24 78 39 142 129 153 216 l6 40 -564 -1 c-437 0 -573 -3 -606 -14z" />
    <path d="M4780 1273 c1 -42 270 -1008 288 -1032 53 -72 143 -91 229 -50 47 22 77 67 163 238 33 66 38 82 23 77 -69 -27 -141 -8 -196 53 -38 42 -36 38 -122 355 -31 115 -65 226 -75 247 -41 80 -135 129 -247 129 -53 0 -63 -3 -63 -17z" />
    <path d="M6356 1282 c-3 -4 -39 -143 -80 -307 -85 -338 -85 -328 -3 -366 49 -22 75 -23 127 -8 80 24 81 27 169 356 45 166 81 308 81 317 0 14 -19 16 -144 16 -80 0 -147 -4 -150 -8z" />
    <path d="M5915 1065 c-5 -2 -22 -6 -37 -9 -51 -11 -138 -110 -138 -155 0 -12 335 -658 352 -678 27 -33 90 -55 145 -51 102 9 135 53 186 249 21 79 40 152 43 162 5 17 2 17 -37 -4 -75 -38 -163 -25 -215 33 -12 12 -70 115 -128 228 -59 113 -114 211 -123 218 -17 12 -28 14 -48 7z" />
    <path d="M1471 1041 c-10 -17 -7 -37 15 -104 21 -66 27 -103 28 -191 l1 -108 -35 -29 c-77 -65 -201 -73 -346 -23 -90 31 -124 31 -154 -1 l-23 -24 44 -19 c125 -54 182 -67 289 -67 89 0 111 3 148 22 l42 23 -15 -38 c-28 -65 -43 -81 -97 -97 -172 -51 -429 45 -668 249 -70 60 -108 70 -146 41 -18 -15 -17 -17 36 -66 144 -131 310 -236 449 -284 87 -29 212 -49 260 -41 l36 7 -44 -42 -43 -42 -92 6 c-130 7 -270 60 -417 159 l-66 44 5 -72 c4 -60 1 -80 -17 -118 -21 -43 -73 -98 -103 -108 -21 -8 -5 -17 73 -45 99 -34 273 -43 381 -19 240 53 436 233 515 471 24 71 27 96 27 215 0 120 -3 144 -27 215 -35 104 -41 114 -56 86z" />
    <path d="M3541 963 c-63 -22 -126 -89 -145 -154 l-16 -53 27 -28 c15 -16 57 -43 93 -61 l64 -32 446 -6 c465 -6 478 -7 570 -54 47 -24 130 -105 130 -127 0 -7 6 -4 12 6 6 12 8 44 4 84 -11 124 -84 229 -195 281 l-56 26 -413 5 -414 5 -19 24 c-11 14 -19 39 -19 62 0 44 -4 45 -69 22z" />
    <path d="M2194 904 c-124 -74 -240 -219 -285 -357 l-22 -67 38 -57 c53 -79 124 -145 204 -187 124 -65 133 -66 658 -66 l473 0 0 169 c0 106 -4 172 -10 176 -6 4 -43 -7 -83 -23 -117 -49 -164 -54 -487 -50 l-295 3 -52 27 c-173 92 -220 275 -108 422 19 25 34 46 32 46 -2 0 -30 -16 -63 -36z" />
    <path d="M2509 840 c-57 -10 -98 -31 -136 -69 -34 -34 -63 -89 -63 -120 0 -21 2 -21 300 -21 l299 0 3 -77 3 -78 65 2 c71 1 178 36 243 79 l38 25 -3 132 -3 132 -350 1 c-192 1 -371 -2 -396 -6z" />
    <path d="M4422 545 c1 -38 -4 -51 -26 -73 l-26 -27 -443 -5 c-440 -5 -442 -5 -479 -28 -67 -42 -122 -123 -134 -201 l-7 -42 594 3 594 3 51 29 c61 33 114 85 142 139 24 46 17 82 -26 137 -33 41 -138 97 -199 106 l-41 6 0 -47z" />
  </g>
</svg>